<svg width="523" height="523" viewBox="0 0 523 523" fill="none" xmlns="http://www.w3.org/2000/svg">
<path d="M315.59 99.4734L300.611 95.3669C298.683 94.724 296.784 94.9262 294.937 95.9718C293.084 97.0183 291.833 98.5893 291.19 100.682L201.098 412.502C200.455 414.596 200.656 416.57 201.703 418.42C202.749 420.272 204.317 421.52 206.413 422.163L221.388 426.271C223.32 426.919 225.212 426.716 227.064 425.669C228.917 424.617 230.166 423.052 230.808 420.962L320.903 109.137C321.545 107.044 321.345 105.07 320.297 103.216C319.25 101.363 317.684 100.115 315.59 99.4734Z" fill="#FA6527"/>
<path d="M180.575 160.344C180.575 158.251 179.769 156.397 178.159 154.788L166.08 142.711C164.471 141.101 162.618 140.294 160.525 140.294C158.432 140.294 156.578 141.102 154.969 142.711L42.4161 255.264C40.8037 256.874 40 258.727 40 260.82C40 262.913 40.8062 264.765 42.4161 266.374L154.968 378.928C156.578 380.54 158.428 381.342 160.524 381.342C162.62 381.342 164.471 380.538 166.08 378.928L178.158 366.857C179.768 365.248 180.574 363.395 180.574 361.299C180.574 359.209 179.768 357.356 178.158 355.747L83.2357 260.82L178.159 165.899C179.771 164.29 180.575 162.437 180.575 160.344Z" fill="#FA6527"/>
<path d="M479.586 255.262L367.03 142.708C365.421 141.099 363.567 140.292 361.478 140.292C359.381 140.292 357.534 141.099 355.92 142.708L343.846 154.785C342.237 156.395 341.435 158.245 341.435 160.34C341.435 162.436 342.237 164.287 343.846 165.896L438.771 260.819L343.846 355.747C342.237 357.356 341.435 359.21 341.435 361.299C341.435 363.395 342.237 365.248 343.846 366.857L355.92 378.928C357.534 380.54 359.382 381.342 361.478 381.342C363.568 381.342 365.421 380.538 367.03 378.928L479.586 266.375C481.195 264.766 482 262.91 482 260.817C482 258.723 481.195 256.871 479.586 255.262Z" fill="#FA6527"/>
</svg>
